<svg xmlns="http://www.w3.org/2000/svg" xmlns:xlink="http://www.w3.org/1999/xlink" width="2000" zoomAndPan="magnify" viewBox="0 0 1500 1499.999933" height="2000" preserveAspectRatio="xMidYMid meet" version="1.0"><path fill="#ff3131" d="M 1212.304688 1219.695312 L 825.722656 1470.160156 C 802.613281 1485.144531 773.246094 1486.65625 748.695312 1474.101562 L 338.542969 1264.542969 C 313.992188 1252.019531 298.023438 1227.328125 296.617188 1199.824219 L 252.933594 349.242188 C 251.527344 321.734375 264.890625 295.53125 288.035156 280.546875 L 674.585938 30.082031 C 697.691406 15.101562 727.0625 13.585938 751.613281 26.109375 L 1161.796875 235.597656 C 1186.347656 248.121094 1202.316406 272.8125 1203.757812 300.316406 L 1247.40625 1150.933594 C 1248.816406 1178.507812 1235.414062 1204.714844 1212.304688 1219.695312 Z M 1212.304688 1219.695312 " fill-opacity="1" fill-rule="nonzero"/><path fill="#ffffff" d="M 1137.316406 310.09375 C 1137.316406 310.023438 1137.28125 309.953125 1137.28125 309.882812 C 1137.175781 308.160156 1136.859375 306.4375 1136.332031 304.746094 C 1136.296875 304.675781 1136.261719 304.570312 1136.261719 304.5 C 1135.980469 303.691406 1135.699219 302.917969 1135.3125 302.144531 C 1135.3125 302.109375 1135.3125 302.109375 1135.277344 302.074219 C 1134.890625 301.265625 1134.46875 300.457031 1133.941406 299.648438 C 1131.621094 296.058594 1128.382812 293.421875 1124.726562 291.804688 L 726.746094 88.503906 C 720.027344 85.058594 712.007812 85.480469 705.675781 89.597656 L 330.664062 332.535156 C 327.183594 334.503906 324.230469 337.457031 322.257812 341.292969 C 321.835938 342.136719 321.484375 342.980469 321.167969 343.824219 C 321.167969 343.824219 321.167969 343.859375 321.167969 343.859375 C 320.886719 344.667969 320.640625 345.511719 320.464844 346.320312 C 320.429688 346.390625 320.429688 346.496094 320.394531 346.566406 C 320.042969 348.292969 319.902344 350.050781 319.972656 351.773438 C 319.972656 351.84375 319.972656 351.914062 319.972656 351.984375 L 362.988281 1190.082031 C 363.375 1197.609375 367.738281 1204.359375 374.457031 1207.808594 L 773.316406 1411.597656 C 773.386719 1411.632812 773.421875 1411.667969 773.492188 1411.667969 L 773.527344 1411.667969 C 773.5625 1411.667969 773.5625 1411.703125 773.597656 1411.703125 C 774.265625 1412.054688 774.933594 1412.335938 775.636719 1412.621094 C 775.8125 1412.6875 775.988281 1412.761719 776.164062 1412.796875 C 776.726562 1413.007812 777.289062 1413.148438 777.851562 1413.324219 C 778.0625 1413.394531 778.273438 1413.429688 778.484375 1413.464844 C 779.046875 1413.605469 779.644531 1413.710938 780.242188 1413.78125 C 780.417969 1413.816406 780.59375 1413.851562 780.769531 1413.851562 C 781.546875 1413.921875 782.285156 1413.992188 783.09375 1413.992188 C 783.445312 1413.992188 783.796875 1413.992188 784.148438 1413.957031 C 784.710938 1413.921875 785.238281 1413.851562 785.765625 1413.78125 C 785.90625 1413.78125 786.011719 1413.746094 786.152344 1413.746094 C 787.066406 1413.605469 787.945312 1413.394531 788.824219 1413.148438 C 789 1413.113281 789.140625 1413.042969 789.316406 1413.007812 C 790.128906 1412.757812 790.902344 1412.476562 791.640625 1412.125 C 791.746094 1412.089844 791.851562 1412.019531 791.957031 1411.984375 C 792.800781 1411.597656 793.644531 1411.140625 794.417969 1410.648438 C 794.453125 1410.613281 794.523438 1410.613281 794.558594 1410.578125 L 1170.660156 1166.902344 C 1176.992188 1162.785156 1180.648438 1155.648438 1180.261719 1148.121094 Z M 718.410156 131.628906 L 1074.042969 313.292969 L 738.878906 530.449219 L 383.25 348.75 Z M 378.535156 669.101562 L 734.203125 850.804688 L 745.28125 1066.695312 L 389.613281 884.992188 Z M 376.039062 620.457031 L 364.007812 386.347656 L 719.675781 568.050781 L 731.707031 802.160156 Z M 392.113281 933.671875 L 747.777344 1115.375 L 760.195312 1357.503906 L 404.527344 1175.800781 Z M 802.367188 1355.359375 L 789.492188 1104.363281 C 789.707031 1102.21875 789.601562 1100.074219 789.175781 1098 L 775.917969 839.761719 C 776.128906 837.613281 776.023438 835.503906 775.601562 833.429688 L 761.847656 565.835938 L 1097.042969 348.679688 L 1137.5625 1138.164062 Z M 597.0625 591.582031 C 593.335938 598.898438 585.914062 603.082031 578.246094 603.082031 C 575.011719 603.082031 571.738281 602.34375 568.679688 600.761719 L 476.492188 553.664062 C 466.117188 548.355469 462 535.65625 467.3125 525.28125 C 472.621094 514.90625 485.320312 510.789062 495.695312 516.101562 L 587.882812 563.195312 C 598.261719 568.472656 602.375 581.171875 597.0625 591.582031 Z M 610.886719 860.300781 C 607.160156 867.617188 599.738281 871.800781 592.070312 871.800781 C 588.832031 871.800781 585.5625 871.0625 582.503906 869.480469 L 490.316406 822.386719 C 479.9375 817.074219 475.824219 804.375 481.132812 794 C 486.445312 783.625 499.144531 779.507812 509.519531 784.820312 L 601.707031 831.917969 C 612.046875 837.191406 616.164062 849.925781 610.886719 860.300781 Z M 624.675781 1129.019531 C 620.945312 1136.335938 613.523438 1140.523438 605.855469 1140.523438 C 602.621094 1140.523438 599.351562 1139.785156 596.289062 1138.199219 L 504.101562 1091.105469 C 493.726562 1085.792969 489.609375 1073.097656 494.921875 1062.71875 C 500.234375 1052.34375 512.929688 1048.230469 523.308594 1053.539062 L 615.496094 1100.636719 C 625.871094 1105.914062 629.984375 1118.644531 624.675781 1129.019531 Z M 624.675781 1129.019531 " fill-opacity="1" fill-rule="nonzero"/></svg>